<svg id="svg" version="1.1" width="1000" height="294" xmlns="http://www.w3.org/2000/svg" xmlns:xlink="http://www.w3.org/1999/xlink" style="display: block;"><g id="svgg"><path id="path0" d="M207.200 55.600 L 207.200 107.200 217.600 107.200 L 228.000 107.200 228.000 55.600 L 228.000 4.000 217.600 4.000 L 207.200 4.000 207.200 55.600 M16.295 14.500 C 18.022 19.524,28.898 51.529,30.194 55.400 C 31.048 57.951,41.553 88.863,45.827 101.400 C 46.801 104.260,47.599 106.648,47.600 106.706 C 47.600 106.765,52.672 106.765,58.871 106.706 L 70.143 106.600 70.433 105.600 C 70.592 105.050,73.183 97.400,76.191 88.600 C 82.863 69.075,87.614 55.126,89.405 49.800 C 90.145 47.600,93.208 38.600,96.212 29.800 C 99.216 21.000,101.819 13.350,101.996 12.800 C 102.172 12.250,102.445 11.485,102.601 11.100 C 102.868 10.444,102.239 10.400,92.634 10.400 L 82.383 10.400 82.008 11.300 C 81.802 11.795,80.441 15.980,78.983 20.600 C 74.047 36.243,70.756 46.596,70.399 47.600 C 67.248 56.471,62.310 73.399,60.423 81.800 C 58.954 88.342,58.881 88.539,58.503 87.000 C 58.287 86.120,57.250 81.890,56.200 77.600 C 55.149 73.310,53.972 68.810,53.585 67.600 C 52.254 63.438,47.925 49.796,46.921 46.600 C 46.368 44.840,45.227 41.240,44.386 38.600 C 43.544 35.960,41.194 28.535,39.162 22.100 L 35.468 10.400 25.177 10.400 L 14.886 10.400 16.295 14.500 M149.200 31.984 C 132.373 35.073,122.400 49.357,122.400 70.370 C 122.400 86.603,129.006 99.055,140.400 104.298 C 145.818 106.792,147.272 107.203,154.200 108.199 C 162.325 109.368,178.831 107.747,181.380 105.530 C 181.589 105.349,181.992 105.200,182.276 105.200 C 182.560 105.200,183.694 104.806,184.796 104.325 L 186.800 103.450 186.800 95.320 L 186.800 87.189 185.300 87.826 C 162.131 97.661,143.600 92.778,143.600 76.838 L 143.600 75.200 167.456 75.200 L 191.311 75.200 191.086 66.500 C 190.962 61.715,190.661 57.080,190.418 56.200 C 189.250 51.971,188.583 50.008,187.562 47.792 C 184.488 41.120,178.000 35.497,170.800 33.264 C 170.030 33.026,168.770 32.615,168.000 32.353 C 166.326 31.782,151.848 31.498,149.200 31.984 M272.200 31.874 C 261.035 33.678,251.399 41.042,247.435 50.800 C 247.033 51.790,246.549 52.960,246.359 53.400 C 244.311 58.149,243.367 71.434,244.596 78.200 C 245.501 83.181,247.281 88.779,248.730 91.200 C 249.398 92.317,251.186 95.094,251.800 95.970 C 257.819 104.553,271.849 109.935,284.285 108.433 C 292.156 107.482,298.612 105.306,301.874 102.503 C 302.452 102.006,303.031 101.599,303.162 101.598 C 303.591 101.595,306.995 98.241,308.542 96.298 C 318.065 84.338,319.041 61.321,310.631 47.027 C 308.447 43.314,302.023 36.800,300.547 36.800 C 300.283 36.800,300.007 36.659,299.933 36.487 C 299.706 35.954,295.554 34.052,292.200 32.945 C 289.036 31.900,276.267 31.216,272.200 31.874 M324.000 33.217 C 324.000 33.446,324.184 33.851,324.408 34.117 C 324.773 34.548,328.298 39.883,336.358 52.200 C 337.798 54.400,339.079 56.290,339.206 56.400 C 339.333 56.510,340.500 58.310,341.800 60.400 C 343.100 62.490,344.272 64.290,344.404 64.400 C 344.536 64.510,345.284 65.658,346.066 66.950 L 347.488 69.300 346.150 71.350 C 345.415 72.478,344.552 73.760,344.233 74.200 C 343.914 74.640,342.481 76.800,341.047 79.000 C 339.613 81.200,338.273 83.194,338.069 83.431 C 337.864 83.669,337.198 84.659,336.588 85.631 C 335.217 87.818,331.115 94.056,330.690 94.600 C 329.557 96.051,322.800 106.529,322.800 106.834 C 322.800 107.065,327.331 107.171,334.437 107.106 L 346.075 107.000 353.137 95.573 C 357.022 89.288,360.482 83.724,360.826 83.208 C 361.439 82.288,361.584 82.485,368.526 93.753 C 372.417 100.068,375.600 105.315,375.600 105.413 C 375.600 107.042,398.806 108.408,399.778 106.836 C 399.953 106.552,381.947 79.007,379.879 76.396 C 379.615 76.063,378.452 74.290,377.292 72.455 L 375.185 69.119 376.071 67.660 C 376.559 66.857,377.067 66.110,377.200 66.000 C 377.333 65.890,377.873 65.080,378.400 64.200 C 378.927 63.320,379.475 62.510,379.618 62.400 C 379.761 62.290,380.663 60.940,381.621 59.400 C 382.580 57.860,383.469 56.510,383.598 56.400 C 383.727 56.290,385.128 54.220,386.713 51.800 C 388.298 49.380,389.792 47.117,390.034 46.771 C 390.276 46.425,391.713 44.265,393.228 41.971 C 394.743 39.677,396.301 37.370,396.691 36.844 C 397.081 36.318,397.817 35.190,398.326 34.338 L 399.252 32.788 387.357 32.894 L 375.462 33.000 372.956 37.000 C 371.577 39.200,370.439 41.225,370.425 41.500 C 370.411 41.775,370.261 42.000,370.091 42.000 C 369.921 42.000,369.431 42.675,369.001 43.500 C 368.572 44.325,367.838 45.540,367.370 46.200 C 366.901 46.860,366.399 47.670,366.253 48.000 C 366.107 48.330,365.459 49.410,364.815 50.400 C 364.170 51.390,363.157 53.050,362.564 54.088 L 361.486 55.976 355.943 46.992 C 352.894 42.051,350.400 37.826,350.400 37.604 C 350.400 37.382,350.258 37.200,350.084 37.200 C 349.911 37.200,349.251 36.210,348.618 35.000 L 347.467 32.800 335.733 32.800 C 327.861 32.800,324.000 32.937,324.000 33.217 M164.200 47.531 C 167.930 49.441,170.343 52.895,171.203 57.555 C 171.951 61.613,173.469 61.200,157.800 61.200 C 146.656 61.200,144.000 61.099,144.000 60.673 C 144.000 59.073,144.997 55.184,145.828 53.544 C 147.543 50.161,149.952 48.123,154.000 46.634 C 155.481 46.088,162.607 46.715,164.200 47.531 M284.000 48.552 C 291.753 50.775,295.200 57.315,295.200 69.800 C 295.200 87.581,285.722 96.332,273.056 90.246 C 262.683 85.261,262.141 56.084,272.310 50.116 C 275.688 48.134,280.362 47.508,284.000 48.552 " stroke="none" fill="#ffffff" fill-rule="evenodd"></path><path id="path1" d="M0.000 58.800 L 0.000 117.600 59.000 117.600 L 118.000 117.600 118.000 58.800 L 118.000 0.000 59.000 0.000 L 0.000 0.000 0.000 58.800 M37.391 15.900 C 38.416 19.145,39.943 23.960,40.785 26.600 C 41.627 29.240,42.795 32.930,43.380 34.800 C 43.966 36.670,45.137 40.360,45.983 43.000 C 46.829 45.640,48.365 50.500,49.397 53.800 C 50.429 57.100,51.878 61.690,52.617 64.000 C 54.932 71.242,58.400 84.667,58.400 86.390 C 58.400 88.006,59.124 87.499,59.392 85.696 C 60.084 81.036,63.398 68.844,67.164 57.100 C 71.067 44.932,72.156 41.526,73.592 37.000 C 74.430 34.360,76.321 28.420,77.793 23.800 C 79.266 19.180,80.843 14.185,81.297 12.700 L 82.124 10.000 92.462 10.000 C 100.692 10.000,102.800 10.106,102.800 10.521 C 102.800 10.808,102.155 12.923,101.367 15.221 C 100.579 17.520,98.344 24.080,96.400 29.800 C 94.457 35.520,89.957 48.750,86.399 59.200 C 82.842 69.650,78.798 81.530,77.413 85.600 C 76.029 89.670,73.819 96.150,72.503 100.000 L 70.110 107.000 58.802 107.000 L 47.495 107.000 46.573 104.200 C 46.066 102.660,43.017 93.660,39.797 84.200 C 36.578 74.740,33.520 65.740,33.002 64.200 C 31.323 59.204,19.271 23.726,17.004 17.104 C 15.792 13.564,14.800 10.517,14.800 10.334 C 14.800 10.150,19.464 10.000,25.164 10.000 L 35.528 10.000 37.391 15.900 " stroke="none" fill="#3b404c" fill-rule="evenodd"></path><path id="path2" d="M19.900 10.299 C 22.815 10.367,27.585 10.367,30.500 10.299 C 33.415 10.231,31.030 10.175,25.200 10.175 C 19.370 10.175,16.985 10.231,19.900 10.299 M81.999 10.300 C 81.999 10.465,85.104 10.554,88.899 10.497 C 101.813 10.305,103.020 10.166,92.500 10.083 C 86.725 10.037,82.000 10.135,81.999 10.300 M47.303 106.400 C 47.482 107.057,69.414 107.546,70.054 106.906 C 70.223 106.738,65.299 106.651,59.112 106.712 C 50.320 106.800,47.784 106.713,47.501 106.312 C 47.225 105.922,47.178 105.943,47.303 106.400 " stroke="none" fill="#969da6" fill-rule="evenodd"></path></g></svg>