<?xml version="1.0" standalone="no"?>
<!DOCTYPE svg PUBLIC "-//W3C//DTD SVG 20010904//EN"
 "http://www.w3.org/TR/2001/REC-SVG-20010904/DTD/svg10.dtd">
<svg version="1.0" xmlns="http://www.w3.org/2000/svg"
 width="1621.000000pt" height="477.000000pt" viewBox="0 0 1621.000000 477.000000"
 preserveAspectRatio="xMidYMid meet">
<metadata>
Created by potrace 1.14, written by Peter Selinger 2001-2017
</metadata>
<g transform="translate(0.000000,477.000000) scale(0.100000,-0.100000)"
fill="#000000" stroke="none">
<path d="M0 2385 l0 -2385 2385 0 2385 0 0 2385 0 2385 -2385 0 -2385 0 0
-2385z m1459 1913 c44 -137 692 -2191 726 -2303 40 -132 140 -529 176 -697 12
-60 24 -107 25 -105 2 2 13 52 25 113 68 356 137 593 525 1814 195 613 364
1143 375 1178 l21 62 419 0 c230 0 419 -4 419 -8 0 -8 -1222 -3608 -1296
-3820 l-36 -102 -456 2 -455 3 -659 1940 c-362 1067 -661 1950 -664 1963 l-6
22 420 0 420 0 21 -62z"/>
</g>
</svg>
